<svg id="图层_1" data-name="图层 1" xmlns="http://www.w3.org/2000/svg" width="1097.5" height="252" viewBox="0 0 1097.5 252">
  <defs>
    <style>
      .cls-1 {
        fill: #2366d1;
      }

      .cls-2 {
        fill: #609dff;
      }

      .cls-3 {
        fill: #a4c7ff;
      }

      .cls-4, .cls-6 {
        fill: #fff;
      }

      .cls-5 {
        fill: #242424;
      }

      .cls-6 {
        stroke: #2366d1;
        stroke-miterlimit: 10;
        stroke-width: 2px;
      }
    </style>
  </defs>
  <title>logo</title>
  <path class="cls-1" d="M128.2,128V254C59,254,2.2,197.1,2.2,128S59,2,128.2,2s126,56.9,126,126Z" transform="translate(-2.2 -2)"/>
  <path id="_椭圆_" data-name="&lt;椭圆&gt;" class="cls-2" d="M128.2,128v84c-46.1,0-84-37.9-84-84s37.9-84,84-84,84,37.9,84,84Z" transform="translate(-2.2 -2)"/>
  <path id="_椭圆_2" data-name="&lt;椭圆&gt;" class="cls-3" d="M128.2,128v42a42,42,0,1,1,42-42Z" transform="translate(-2.2 -2)"/>
  <g>
    <line class="cls-4" x1="803.3" y1="205" x2="906" y2="93.8"/>
    <path class="cls-5" d="M512.6,204.1H331.4V190.4H512.6ZM505.7,60.4H338.2V46.5H505.7Zm-6.6,68.1H344.8V114.8H499.1Z" transform="translate(-2.2 -2)"/>
    <path class="cls-5" d="M710.6,59.5H632.3a77.6,77.6,0,0,1-20.7,26.6h90.5V205.8H538V86.1h52.9a142.4,142.4,0,0,0,13.8-26.6H529.4v-14H710.6ZM561.5,99.9v92.2h18.6V99.9Zm74.9,21.6V99.9H603.7v21.6Zm0,35.2V135.3H603.7v21.4Zm0,35.4V170.6H603.7v21.5Zm42.1,0V99.9H660v92.2Z" transform="translate(-2.2 -2)"/>
    <path class="cls-5" d="M1066.2,170.8H925.4V157.1h140.8Zm19.7,41.2a13.1,13.1,0,0,0,9.7-4,13.6,13.6,0,0,0,4.1-9.7V116.5h-23l5.4-58.8V44H943.4V57.7h114.9l-5.4,58.8H971.3l5.4-48.3-23.4-2.6-5.8,50.9v13.7h128.6v64c0,2.7-1.3,4.1-3.9,4.1h-68.6l2.5,13.7Z" transform="translate(-2.2 -2)"/>
    <g>
      <polygon class="cls-5" points="816.8 189.9 754.5 189.9 754.5 56.7 877.3 56.7 877.3 124.4 900.9 98.8 900.9 42.8 730.7 42.8 730.7 203.6 804.1 203.6 816.8 189.9"/>
      <polygon class="cls-5" points="900.6 203.6 900.9 203.6 900.9 203.4 900.6 203.6"/>
      <path class="cls-5" d="M826.6,183.6l2.2-2.3V127.7c7.5,9.4,14.9,19.3,22.1,29.6L865,142.1a250.7,250.7,0,0,0-29.5-25.8l-6.7,5.8V105.5h43.1V91.7H828.8V67.8H807.1V91.7H764v13.8h33.8a186.1,186.1,0,0,1-40,61.8l8.7,9.3a135.7,135.7,0,0,0,40.6-41v48Z" transform="translate(-2.2 -2)"/>
    </g>
    <line class="cls-6" x1="792.8" y1="214.9" x2="912.1" y2="85.7"/>
  </g>
</svg>
